<?xml version="1.0" standalone="no"?>
<!DOCTYPE svg PUBLIC "-//W3C//DTD SVG 1.1//EN" "http://www.w3.org/Graphics/SVG/1.1/DTD/svg11.dtd" >
<svg xmlns="http://www.w3.org/2000/svg">
<metadata>
This is a custom SVG webfont generated by Font Squirrel.
Copyright   : Copyright c 2007 Pol Udomwittayanukul All rights reserved
Designer    : Pol Udomwittayanukul
</metadata>
<defs>
<font id="SawasdeeRegular" horiz-adv-x="422" >
<font-face units-per-em="2048" ascent="1536" descent="-512" />
<missing-glyph horiz-adv-x="731" />
<glyph unicode=" "  horiz-adv-x="731" />
<glyph unicode="&#x09;" horiz-adv-x="731" />
<glyph unicode="&#xa0;" horiz-adv-x="731" />
<glyph unicode="!" horiz-adv-x="498" d="M168 69q0 34 24 58.5t58 24.5t58.5 -24.5t24.5 -58.5q0 -33 -25 -58.5t-58 -25.5t-57.5 25.5t-24.5 58.5zM190 1493h122l-32 -1224h-58z" />
<glyph unicode="&#x22;" horiz-adv-x="690" d="M168 1551h118l-28 -387h-61zM406 1551h120l-31 -387h-59z" />
<glyph unicode="#" horiz-adv-x="1066" d="M0 463v90h235l94 387h-228v90h248l110 463h94l-113 -463h327l111 463h91l-110 -463h209v-90h-233l-92 -387h222v-90h-241l-113 -463h-90l113 463h-327l-110 -463h-92l110 463h-215zM325 553h326l92 387h-324z" />
<glyph unicode="$" horiz-adv-x="1179" d="M124 414l89 13q22 -169 114.5 -259t221.5 -104v742q-72 32 -119 59t-95 68.5t-72 96.5t-24 125q0 136 86 235t224 112v134h89v-134q109 -14 199 -86t130 -190l-83 -28q-32 91 -97 146t-144 68v-543q164 -69 233 -115q167 -111 182 -290q1 -18 1 -37q0 -180 -121 -301.5 t-295 -140.5v-135h-94v123q-76 6 -144.5 35.5t-127.5 82t-99.5 136t-53.5 187.5zM329 1149q0 -87 56.5 -142t163.5 -105v501q-100 -13 -160 -84t-60 -170zM638 64q138 21 233.5 117.5t95.5 239.5q0 56 -19 103.5t-46.5 80t-75.5 64t-87.5 50t-100.5 44.5v-699z" />
<glyph unicode="%" horiz-adv-x="1568" d="M124 1211q0 121 84.5 207t205.5 86t207 -86t86 -207t-86 -206t-207 -85t-205.5 85t-84.5 206zM199 0l1061 1493h110l-1058 -1493h-113zM213 1211q0 -82 58.5 -140.5t142.5 -58.5q85 0 144.5 58.5t59.5 140.5q0 84 -59.5 142.5t-144.5 58.5q-84 0 -142.5 -58.5 t-58.5 -142.5zM861 275q0 120 86.5 205.5t207.5 85.5t207 -85t86 -206t-86 -206.5t-207 -85.5t-207.5 85.5t-86.5 206.5zM951 275q0 -83 59.5 -142t144.5 -59t144.5 59t59.5 142t-59.5 141t-144.5 58t-144.5 -58t-59.5 -141z" />
<glyph unicode="&#x26;" horiz-adv-x="1354" d="M124 538q0 169 95.5 308t248.5 201q-47 93 -47 182q0 126 87 205t218 79q129 0 220.5 -84t91.5 -238h-89q0 118 -66 175.5t-157 57.5q-96 0 -156 -54t-60 -141q0 -88 65 -188l525 -734q55 103 55 227h96q0 -167 -96 -303l163 -231h-109l-115 158q-76 -81 -182 -127 t-225 -46q-153 0 -282.5 74t-205 201.5t-75.5 277.5zM213 534q0 -191 138.5 -326.5t335.5 -135.5q106 0 199 42.5t159 116.5l-528 736q-136 -49 -220 -167.5t-84 -265.5z" />
<glyph unicode="'" horiz-adv-x="451" d="M168 1551h118l-28 -387h-61z" />
<glyph unicode="(" horiz-adv-x="487" d="M124 683q0 463 228 891h69q-197 -442 -197 -905t203 -938h-68q-235 476 -235 952z" />
<glyph unicode=")" horiz-adv-x="457" d="M62 -269q205 476 205 938q0 454 -198 905h68q230 -435 230 -891q0 -464 -235 -952h-70z" />
<glyph unicode="*" horiz-adv-x="910" d="M168 1525l20 87l222 -54v208h94v-208l222 54l19 -87l-215 -49l135 -203l-74 -49l-134 200l-135 -200l-74 49l135 203z" />
<glyph unicode="+" horiz-adv-x="1036" d="M124 701v89h350v354h90v-354h352v-89h-352v-352h-90v352h-350z" />
<glyph unicode="," horiz-adv-x="523" d="M168 69q0 34 24 58.5t58 24.5q41 0 75 -31.5t34 -90.5q0 -47 -15 -92t-36.5 -76t-43 -55.5t-36.5 -36.5l-15 -12h-45q45 37 86 112.5t41 129.5q-20 -15 -45 -15q-33 0 -57.5 25.5t-24.5 58.5z" />
<glyph unicode="-" horiz-adv-x="856" d="M124 553v90h613v-90h-613z" />
<glyph unicode="." horiz-adv-x="498" d="M168 69q0 34 24 58.5t58 24.5t58.5 -24.5t24.5 -58.5q0 -33 -25 -58.5t-58 -25.5t-57.5 25.5t-24.5 58.5z" />
<glyph unicode="/" horiz-adv-x="1168" d="M0 0l1059 1493h112l-1062 -1493h-109z" />
<glyph unicode="0" horiz-adv-x="1192" d="M101 745q0 150 37 288.5t101 243t158 167t201 62.5q141 0 255.5 -106.5t176.5 -280t62 -374.5q0 -200 -62 -373t-176.5 -280t-255.5 -107q-142 0 -257.5 107t-177.5 280t-62 373zM190 745q0 -142 34.5 -268.5t91.5 -213.5t131 -138t151 -51q61 0 120.5 32t110.5 92.5 t90 141.5t61.5 186t22.5 219q0 143 -34.5 270t-91 214t-130 137.5t-149.5 50.5q-77 0 -151 -50.5t-131 -137.5t-91.5 -214t-34.5 -270z" />
<glyph unicode="1" horiz-adv-x="1192" d="M342 1314l301 179v-1493h-90l-4 1332l-162 -97z" />
<glyph unicode="2" horiz-adv-x="1192" d="M101 0v43q0 103 46.5 193t120.5 156t164 126.5t179.5 116.5t163.5 113t120.5 129.5t46.5 154.5q0 163 -100.5 274t-241.5 111q-143 0 -245.5 -111.5t-102.5 -273.5h-88q0 128 57.5 237t157.5 173t219 64q118 0 218 -64t157 -173t57 -237q0 -72 -27 -137.5t-73 -117.5 t-106 -100t-127 -91t-134.5 -85t-131 -87.5t-114 -93t-84.5 -106.5t-43 -124h884v-90h-973z" />
<glyph unicode="3" horiz-adv-x="1192" d="M137 446h94q0 -153 108 -262.5t261 -109.5q152 0 260.5 109.5t108.5 262.5q0 151 -108.5 259.5t-260.5 108.5v90q112 0 190.5 69.5t78.5 179.5q0 109 -78.5 186.5t-190.5 77.5t-190.5 -77.5t-78.5 -186.5h-89q0 147 105 250t253 103t253.5 -103t105.5 -250 q0 -95 -46 -170.5t-125 -121.5q121 -54 195 -167t74 -248q0 -126 -62 -232t-167.5 -167.5t-229.5 -61.5q-192 0 -326.5 134.5t-134.5 326.5z" />
<glyph unicode="4" horiz-adv-x="1192" d="M0 278l933 1233v-1144h167l-32 -89h-135v-278h-89v278h-844zM179 367h665v876z" />
<glyph unicode="5" horiz-adv-x="1192" d="M98 440h90q27 -158 141.5 -263t263.5 -105q170 0 291.5 132t121.5 322q0 189 -121.5 320.5t-291.5 131.5q-113 0 -209 -63.5t-151 -169.5h-99l63 748h750l-31 -90h-636l-41 -499q70 75 161.5 117t192.5 42q138 0 253.5 -73t181.5 -197.5t66 -271.5q0 -146 -66 -269.5 t-181.5 -196t-253.5 -72.5q-187 0 -327.5 132t-167.5 325z" />
<glyph unicode="6" horiz-adv-x="1192" d="M92 540q0 86 21 162.5t73.5 167.5t103.5 164t152 214t178 256h108l-307 -457q86 34 172 34q138 0 253.5 -73.5t181.5 -197.5t66 -270t-66 -270t-181.5 -197t-253.5 -73q-137 0 -252.5 73t-182 197t-66.5 270zM181 540q0 -189 121.5 -321t290.5 -132q170 0 291.5 132 t121.5 321q0 190 -121.5 322t-291.5 132q-169 0 -290.5 -132t-121.5 -322z" />
<glyph unicode="7" horiz-adv-x="1192" d="M134 1403l30 90h1000l-669 -1493h-99l631 1403h-893z" />
<glyph unicode="8" horiz-adv-x="1192" d="M137 446q0 139 75.5 252.5t199.5 168.5q-77 44 -123.5 123t-46.5 172q0 142 104.5 243t251.5 101q145 0 249 -101t104 -243q0 -94 -46 -172.5t-124 -122.5q123 -55 199.5 -169t76.5 -252q0 -126 -62 -232t-167.5 -167.5t-229.5 -61.5q-192 0 -326.5 134.5t-134.5 326.5z M226 446q0 -153 109 -262.5t263 -109.5q151 0 260 109.5t109 262.5q0 151 -109 259.5t-260 108.5q-153 0 -262.5 -108.5t-109.5 -259.5zM331 1162q0 -106 78 -182t189 -76q109 0 186 76t77 182q0 105 -77.5 180t-185.5 75q-111 0 -189 -75t-78 -180z" />
<glyph unicode="9" horiz-adv-x="1192" d="M92 965q0 145 66.5 269t182 197t252.5 73q138 0 253.5 -73t181.5 -196.5t66 -269.5q0 -72 -17.5 -142t-44.5 -129t-80 -140.5t-101.5 -149t-132.5 -185t-152 -219.5h-107l308 457q-86 -34 -174 -34q-137 0 -252.5 73.5t-182 198t-66.5 270.5zM181 965q0 -191 121.5 -323 t290.5 -132q170 0 291.5 132t121.5 323q0 189 -121.5 320.5t-291.5 131.5q-169 0 -290.5 -131.5t-121.5 -320.5z" />
<glyph unicode=":" horiz-adv-x="498" d="M168 69q0 34 24 58.5t58 24.5t58.5 -24.5t24.5 -58.5q0 -33 -25 -58.5t-58 -25.5t-57.5 25.5t-24.5 58.5zM168 949q0 34 24 58.5t58 24.5t58.5 -24.5t24.5 -58.5t-24.5 -58t-58.5 -24t-58 24t-24 58z" />
<glyph unicode=";" horiz-adv-x="498" d="M168 69q0 34 24 58.5t58 24.5q41 0 75 -31.5t34 -90.5q0 -47 -15 -92t-36.5 -76t-43 -55.5t-36.5 -36.5l-15 -12h-45q45 37 86 112.5t41 129.5q-20 -15 -45 -15q-33 0 -57.5 25.5t-24.5 58.5zM168 949q0 34 24 58.5t58 24.5t58.5 -24.5t24.5 -58.5t-24.5 -58t-58.5 -24 t-58 24t-24 58z" />
<glyph unicode="&#x3c;" horiz-adv-x="1183" d="M124 508l827 506h175l-831 -506l831 -508h-175z" />
<glyph unicode="=" horiz-adv-x="1036" d="M124 432v89h792v-89h-792zM124 671v90h792v-90h-792z" />
<glyph unicode="&#x3e;" horiz-adv-x="1203" d="M124 0l827 508l-827 506h171l831 -506l-831 -508h-171z" />
<glyph unicode="?" horiz-adv-x="1036" d="M124 1130q0 150 122 263t294 113q162 0 269 -106t107 -270q0 -52 -21 -102t-54 -91.5t-73.5 -83t-81 -85t-73.5 -89t-54 -103t-21 -119.5v-150h-90v150q0 71 21 136t54 115t73.5 96.5t81 86.5t73.5 78t54 79.5t21 81.5q0 127 -82 207t-204 80q-138 0 -232.5 -89 t-94.5 -198h-89zM406 69q0 34 25.5 58.5t59.5 24.5q33 0 57.5 -25t24.5 -58t-25 -58.5t-57 -25.5q-34 0 -59.5 25.5t-25.5 58.5z" />
<glyph unicode="@" horiz-adv-x="2029" d="M124 504q0 203 70 388t189.5 319t285.5 213.5t350 79.5q144 0 279.5 -49.5t245 -140.5t192 -211.5t128 -269.5t45.5 -307q0 -120 -20.5 -217t-52.5 -157t-74 -100t-83 -56t-83 -16q-102 0 -181 83.5t-101 211.5q-89 -131 -220.5 -211.5t-269.5 -80.5q-160 0 -259 107 t-99 275q0 123 54 245t139.5 212.5t197 147.5t220.5 57q112 0 196.5 -55t125.5 -150l49 192h94l-118 -497q-27 -85 -27 -158q0 -128 62.5 -207.5t136.5 -79.5q29 0 58 13.5t59.5 47t53.5 83.5t38 130t15 180q0 182 -65 347t-173.5 282.5t-256 187t-306.5 69.5 q-162 0 -310.5 -71.5t-257 -192.5t-172.5 -290t-64 -356t64 -356.5t172.5 -291t257 -193t310.5 -71.5q202 0 387 115l47 -74q-199 -126 -434 -126q-184 0 -350 79.5t-285.5 213.5t-189.5 318.5t-70 387.5zM562 367q0 -130 71.5 -211.5t192.5 -81.5q91 0 185.5 48.5 t169 126.5t122 184t47.5 212q0 129 -73 211t-194 82q-92 0 -186.5 -50t-168 -128.5t-120 -183.5t-46.5 -209z" />
<glyph unicode="A" horiz-adv-x="1322" d="M36 0l626 1511l628 -1511h-96l-191 463h-681l-190 -463h-96zM365 553h602l-302 725z" />
<glyph unicode="B" horiz-adv-x="1293" d="M168 0v1493h513q156 0 269 -105.5t113 -252.5q0 -92 -48.5 -170t-130.5 -126q130 -50 209.5 -158t79.5 -243q0 -119 -65 -220t-175.5 -159.5t-240.5 -58.5h-524zM258 90h434q165 0 278 102.5t113 245.5t-113 245.5t-278 102.5h-434v-696zM258 875h415q126 0 211 76.5 t85 185.5q0 108 -85.5 187t-210.5 79h-415v-528z" />
<glyph unicode="C" horiz-adv-x="1608" d="M124 750q0 155 60 296t161 243t241 162t294 60q184 0 344 -83.5t265 -227.5l-72 -53q-93 125 -233.5 197.5t-303.5 72.5q-182 0 -335.5 -90t-242.5 -244.5t-89 -337.5q0 -136 52.5 -260t141.5 -214t213 -143.5t260 -53.5q163 0 303.5 73t233.5 199l72 -49 q-104 -143 -264 -225.5t-345 -82.5q-154 0 -294 60t-241 162t-161 243t-60 296z" />
<glyph unicode="D" horiz-adv-x="1346" d="M168 0v1493h300q154 0 294 -58t242 -157.5t162 -238.5t60 -294q0 -206 -102 -377.5t-276 -269.5t-380 -98h-300zM258 90h210q183 0 336.5 86t243 237t89.5 332q0 183 -89.5 334.5t-243 237.5t-336.5 86h-210v-1313z" />
<glyph unicode="E" horiz-adv-x="1094" d="M168 0v1493h868v-90h-778v-491h716v-90h-716v-732h774v-90h-864z" />
<glyph unicode="F" horiz-adv-x="1094" d="M168 0v1493h868v-90h-778v-491h716v-90h-716v-822h-90z" />
<glyph unicode="G" horiz-adv-x="1758" d="M124 745q0 155 60 296t161 243t241 162t294 60q183 0 344 -82t265 -224l-72 -53q-93 125 -233.5 197.5t-303.5 72.5q-182 0 -335.5 -90t-242.5 -244.5t-89 -337.5q0 -136 52.5 -260t141.5 -214t213 -143.5t260 -53.5q174 0 324 83.5t241 227.5t102 316h-667v89h758v-45 q0 -155 -60 -295.5t-161.5 -242.5t-242 -162t-294.5 -60t-294 60t-241 162t-161 242.5t-60 295.5z" />
<glyph unicode="H" horiz-adv-x="1393" d="M168 0v1493h90v-581h881v581h90v-1493h-90v822h-881v-822h-90z" />
<glyph unicode="I" d="M168 0v1493h90v-1493h-90z" />
<glyph unicode="J" horiz-adv-x="1021" d="M124 387h89q0 -130 82.5 -221.5t197.5 -91.5t197.5 91.5t82.5 221.5v1106h84v-1106q0 -165 -106.5 -283.5t-259.5 -118.5q-154 0 -260.5 118t-106.5 284z" />
<glyph unicode="K" horiz-adv-x="1149" d="M168 0v1493h90v-634l693 634h134l-604 -551l658 -942h-116l-604 884l-161 -147v-737h-90z" />
<glyph unicode="L" horiz-adv-x="1094" d="M168 0v1493h90v-1403h778v-90h-868z" />
<glyph unicode="M" horiz-adv-x="1732" d="M36 0l286 1511l545 -1296l554 1296l278 -1511h-94l-219 1200l-525 -1217l-509 1217l-228 -1200h-88z" />
<glyph unicode="N" horiz-adv-x="1678" d="M168 0v1511l1256 -1309v1291h89v-1510l-1255 1307v-1290h-90z" />
<glyph unicode="O" horiz-adv-x="1758" d="M124 745q0 155 60 296t161 243t241 162t294 60t294.5 -60t242 -162t161.5 -243t60 -296t-60 -295.5t-161.5 -242.5t-242 -162t-294.5 -60t-294 60t-241 162t-161 242.5t-60 295.5zM213 745q0 -136 52.5 -260t141.5 -214t213 -143.5t260 -53.5q137 0 261 53.5t213 143.5 t142 214t53 260q0 183 -89 337.5t-243.5 244.5t-336.5 90t-335.5 -90t-242.5 -244.5t-89 -337.5z" />
<glyph unicode="P" horiz-adv-x="1203" d="M168 0v1495h530q161 0 273 -116t112 -279q0 -165 -111.5 -282t-270.5 -117h-443v-701h-90zM258 795h443q119 0 204.5 89t85.5 216t-86 216.5t-207 89.5h-440v-611z" />
<glyph unicode="Q" horiz-adv-x="1758" d="M124 745q0 155 60 296t161 243t241 162t294 60t294.5 -60t242 -162t161.5 -243t60 -296q0 -284 -185 -497l211 -248h-122l-152 181q-103 -93 -234 -144.5t-276 -51.5q-154 0 -294 60t-241 162t-161 242.5t-60 295.5zM213 745q0 -136 52.5 -260t141.5 -214t213 -143.5 t260 -53.5q259 0 455 178l-214 256h117l159 -188q152 184 152 425q0 183 -89 337.5t-243.5 244.5t-336.5 90t-335.5 -90t-242.5 -244.5t-89 -337.5z" />
<glyph unicode="R" horiz-adv-x="1203" d="M168 0v1493h530q161 0 273 -116.5t112 -282.5q0 -141 -87.5 -250.5t-218.5 -136.5l387 -707h-101l-384 701h-421v-701h-90zM258 790h443q119 0 204.5 89t85.5 215q0 128 -86 218.5t-207 90.5h-440v-613z" />
<glyph unicode="S" horiz-adv-x="1177" d="M124 421l89 11q25 -180 128.5 -268.5t243.5 -88.5q99 0 185 41.5t141.5 124t55.5 189.5q0 67 -25 121t-67 91t-96.5 68t-115 56.5t-121 51.5t-115 58t-96.5 70t-67 93.5t-25 124.5q0 144 98 245.5t252 101.5q120 0 225.5 -74.5t150.5 -207.5l-85 -29q-35 107 -115.5 162 t-175.5 55q-115 0 -187.5 -74t-72.5 -181q0 -55 25 -100t67 -77t96.5 -59.5t115 -52.5t121 -52.5t115 -63.5t96.5 -80t67 -108t25 -142q0 -130 -67 -233t-174 -157t-231 -54q-81 0 -155 26t-138 77.5t-109 137.5t-59 197z" />
<glyph unicode="T" horiz-adv-x="982" d="M60 1403v90h865v-90h-387v-1403h-90v1403h-388z" />
<glyph unicode="U" horiz-adv-x="1393" d="M168 566v927h90v-927q0 -135 61 -249t162.5 -178.5t219.5 -64.5t218.5 64.5t160 178t59.5 249.5v927h90v-927q0 -157 -70.5 -290.5t-193 -212t-267.5 -78.5t-267 78.5t-192.5 212t-70.5 290.5z" />
<glyph unicode="V" horiz-adv-x="1286" d="M36 1493h96l519 -1269l504 1269h99l-600 -1510z" />
<glyph unicode="W" horiz-adv-x="1965" d="M25 1493h89l439 -1235l430 1253l429 -1253l435 1235h96l-531 -1510l-427 1246l-428 -1246z" />
<glyph unicode="X" horiz-adv-x="964" d="M25 0l407 806l-349 687h103l297 -589l298 589h103l-350 -687l408 -806h-100l-359 705l-357 -705h-101z" />
<glyph unicode="Y" horiz-adv-x="1228" d="M36 1493h105l474 -752l475 752h104l-534 -848v-645h-89v645z" />
<glyph unicode="Z" horiz-adv-x="1185" d="M36 0l929 1403h-860l29 90h996l-927 -1403h950l-32 -90h-1085z" />
<glyph unicode="[" horiz-adv-x="433" d="M168 -314v1897h268v-90h-178v-1717h178v-90h-268z" />
<glyph unicode="\" horiz-adv-x="1168" d="M0 1493h109l1062 -1493h-112z" />
<glyph unicode="]" horiz-adv-x="433" d="M0 -224h179v1717h-179v90h269v-1897h-269v90z" />
<glyph unicode="^" horiz-adv-x="1196" d="M124 745l429 748h101l423 -748h-103l-372 654l-376 -654h-102z" />
<glyph unicode="_" horiz-adv-x="970" d="M0 0h974v-90h-974v90z" />
<glyph unicode="`" horiz-adv-x="425" d="M72 1523h114l98 -294h-69z" />
<glyph unicode="a" horiz-adv-x="1060" d="M101 262q0 51 15.5 94t40 73.5t65 55t78 40t93.5 27t97 17t102 8.5t96.5 3.5t90.5 0.5h27q-5 165 -97.5 263t-213.5 98q-71 0 -138.5 -37t-117.5 -108l-71 47q61 94 147 141t180 47q76 0 146.5 -30.5t126.5 -86t90.5 -142.5t36.5 -192v-447q0 -87 25 -134h-96 q-18 57 -18 134v79q-72 -100 -172.5 -165t-212.5 -65q-81 0 -144.5 25.5t-100.5 67.5t-56 89.5t-19 96.5zM190 262q0 -72 60 -131t171 -59q115 0 223 77t162 176v192q-47 -1 -78.5 -2t-86 -4.5t-92.5 -8t-88.5 -14.5t-85.5 -22.5t-72.5 -32t-60.5 -43t-37.5 -56.5t-14.5 -72 z" />
<glyph unicode="b" horiz-adv-x="1215" d="M143 0q25 50 25 134v1359h90v-739q37 109 148.5 192.5t227.5 83.5q127 0 233 -71.5t166.5 -191.5t60.5 -259q0 -140 -60.5 -260.5t-166.5 -191.5t-233 -71q-114 0 -226 85.5t-150 189.5v-126q0 -68 -19 -134h-96zM258 508q0 -180 111 -307t265 -127q152 0 264 127.5 t112 306.5q0 180 -112 306t-264 126q-154 0 -265 -126t-111 -306z" />
<glyph unicode="c" horiz-adv-x="1098" d="M124 510q0 141 60.5 261t167 190.5t233.5 70.5q122 0 226.5 -67t166.5 -179l-76 -45q-53 92 -136.5 145.5t-180.5 53.5q-153 0 -265 -124t-112 -303q0 -180 112 -306t265 -126q97 0 181 53t136 146l76 -45q-62 -112 -166.5 -179t-226.5 -67q-127 0 -233.5 70.5 t-167 190.5t-60.5 260z" />
<glyph unicode="d" horiz-adv-x="1215" d="M124 508q0 140 60.5 259.5t167 191t233.5 71.5q115 0 227 -83.5t149 -192.5v739h89v-1359q0 -86 24 -134h-96q-17 59 -17 134v126q-38 -104 -150.5 -189.5t-225.5 -85.5q-127 0 -233.5 71t-167 191.5t-60.5 260.5zM208 508q0 -179 112 -306.5t265 -127.5t264.5 127 t111.5 307t-111 306t-265 126q-153 0 -265 -126t-112 -306z" />
<glyph unicode="e" horiz-adv-x="1177" d="M124 508q0 139 61.5 259t169 191.5t234.5 71.5q120 0 223.5 -64.5t167.5 -173.5t75 -239l2 -45h-849q0 -179 112 -304t265 -125q101 0 198 54t148 145l79 -45q-61 -109 -180 -178.5t-245 -69.5q-127 0 -233.5 71t-167 191.5t-60.5 260.5zM222 593h737q-28 151 -132 249 t-238 98q-133 0 -236.5 -98t-130.5 -249z" />
<glyph unicode="f" horiz-adv-x="532" d="M79 925v89h85v90q0 166 108.5 284t261.5 118v-58q-112 0 -197 -105.5t-85 -238.5v-90h282l-30 -89h-252v-925h-88v925h-85z" />
<glyph unicode="g" horiz-adv-x="1215" d="M124 508q0 140 60.5 259.5t167 191t233.5 71.5q114 0 226 -85.5t150 -190.5v126q0 75 17 134h96q-24 -46 -24 -134v-880q0 -140 -62.5 -260t-170.5 -190.5t-236 -70.5q-176 0 -306 130l65 62q106 -103 245 -103q154 0 265 126t111 306v260q-37 -109 -148.5 -192 t-227.5 -83q-127 0 -233.5 71t-167 191.5t-60.5 260.5zM203 508q0 -180 111.5 -307t264.5 -127t264.5 127.5t111.5 306.5q0 180 -111.5 306t-264.5 126q-154 0 -265 -126t-111 -306z" />
<glyph unicode="h" horiz-adv-x="1071" d="M168 0v1493h90v-767q52 122 151 213t191 91q102 0 172.5 -57t102 -146t31.5 -201v-626h-88v626q0 55 -10.5 106t-33.5 100t-68.5 78.5t-107.5 29.5q-59 0 -122.5 -46t-110 -112.5t-77 -141.5t-30.5 -132v-508h-90z" />
<glyph unicode="i" d="M132 1254q0 33 23.5 57t57.5 24q33 0 56.5 -24t23.5 -57q0 -34 -23 -57.5t-57 -23.5t-57.5 23.5t-23.5 57.5zM168 0v1014h90v-1014h-90z" />
<glyph unicode="j" horiz-adv-x="415" d="M-30 -235q81 0 139.5 70.5t58.5 166.5v1012h90v-1012q0 -129 -84 -221.5t-204 -92.5v77zM128 1254q0 33 23.5 57t56.5 24t57 -24t24 -57q0 -34 -24 -57.5t-57 -23.5t-56.5 23.5t-23.5 57.5z" />
<glyph unicode="k" horiz-adv-x="950" d="M168 0v1493h90v-886l449 407h135l-428 -388l537 -626h-116l-486 566l-91 -81v-485h-90z" />
<glyph unicode="l" d="M168 0v1493h90v-1493h-90z" />
<glyph unicode="m" horiz-adv-x="1595" d="M143 1014h96q19 -66 19 -134v-146q48 118 138 207t170 89q119 0 191 -82.5t91 -213.5q50 122 134.5 207.5t166.5 85.5q94 0 159.5 -58.5t94 -147t28.5 -197.5v-624h-90v624q0 54 -9 105t-29.5 100t-60.5 79t-95 30q-67 0 -140 -75.5t-119 -177.5t-46 -181v-504h-90v626 q0 55 -9 106t-29 100t-60.5 78.5t-96.5 29.5q-62 0 -133.5 -72t-118.5 -174t-47 -186v-508h-90v880q0 86 -25 134z" />
<glyph unicode="n" horiz-adv-x="1071" d="M143 1014h96q19 -66 19 -134v-152q55 125 152.5 213.5t189.5 88.5q102 0 172.5 -57t102 -146t31.5 -201v-626h-88v626q0 55 -10.5 106t-33.5 100t-68.5 78.5t-107.5 29.5q-59 0 -122.5 -46t-110 -112.5t-77 -141.5t-30.5 -132v-508h-90v880q0 86 -25 134z" />
<glyph unicode="o" horiz-adv-x="1282" d="M124 508q0 142 69.5 262.5t189 190t260.5 69.5q105 0 201 -41t166 -111t111 -167t41 -203q0 -107 -41 -204t-111 -166.5t-166 -111t-201 -41.5q-215 0 -367 153t-152 370zM213 508q0 -179 126.5 -306.5t305.5 -127.5t305.5 127.5t126.5 306.5q0 178 -126.5 305 t-305.5 127t-305.5 -127t-126.5 -305z" />
<glyph unicode="p" horiz-adv-x="1215" d="M143 1014h96q19 -66 19 -134v-126q38 105 150 190.5t226 85.5q127 0 233 -71.5t166.5 -191.5t60.5 -259q0 -140 -60.5 -260.5t-166.5 -191.5t-233 -71q-116 0 -227.5 82.5t-148.5 192.5v-708h-90v1328q0 86 -25 134zM258 508q0 -180 111 -307t265 -127q152 0 264 127.5 t112 306.5q0 180 -112 306t-264 126q-154 0 -265 -126t-111 -306z" />
<glyph unicode="q" horiz-adv-x="1215" d="M124 508q0 140 60.5 259.5t167 191t233.5 71.5q114 0 226 -85.5t150 -190.5v126q0 75 17 134h96q-24 -46 -24 -134v-1328h-89v708q-37 -109 -148.5 -192t-227.5 -83q-127 0 -233.5 71t-167 191.5t-60.5 260.5zM208 508q0 -179 112 -306.5t265 -127.5t264.5 127t111.5 307 t-111 306t-265 126q-153 0 -265 -126t-112 -306z" />
<glyph unicode="r" horiz-adv-x="648" d="M143 1014h96q19 -66 19 -134v-126q23 77 107 160t169 116l100 -71q-88 0 -175.5 -62t-144 -164.5t-56.5 -211.5v-521h-90v880q0 86 -25 134z" />
<glyph unicode="s" horiz-adv-x="892" d="M124 289l89 13q14 -114 79.5 -172t153.5 -58q93 0 165 62.5t72 160.5q0 54 -27 95.5t-69.5 67.5t-94.5 49t-104 47t-94.5 52.5t-69.5 75t-27 106.5q0 112 74.5 178t176.5 66q84 0 157 -50.5t104 -146.5l-83 -29q-21 67 -71 102.5t-107 35.5q-66 0 -112.5 -42t-46.5 -114 q0 -38 21 -69t55 -51t77.5 -41t88.5 -39t88.5 -45t77.5 -58t55 -80t21 -110q0 -139 -99 -225.5t-230 -86.5q-57 0 -109 18.5t-96 54.5t-75 96t-40 137z" />
<glyph unicode="t" horiz-adv-x="551" d="M79 925v89h89v240h90v-240h280l-30 -89h-250v-925h-90v925h-89z" />
<glyph unicode="u" horiz-adv-x="1066" d="M168 387v627h90v-627q0 -131 79 -222t193 -91q115 0 198.5 91.5t83.5 221.5v627h90v-627q0 -165 -107 -283.5t-261 -118.5q-153 0 -259.5 118.5t-106.5 283.5z" />
<glyph unicode="v" horiz-adv-x="946" d="M36 1014h96l342 -811l340 811h100l-437 -1044z" />
<glyph unicode="w" horiz-adv-x="1600" d="M36 1014h98l332 -793l340 811l341 -811l324 793h96l-420 -1031l-344 810l-340 -810z" />
<glyph unicode="x" horiz-adv-x="906" d="M36 0l367 538l-324 476h98l273 -399l276 399h105l-327 -476l367 -538h-104l-312 459l-314 -459h-105z" />
<glyph unicode="y" horiz-adv-x="946" d="M36 1014h92l349 -895l341 895h96l-583 -1535h-96l197 519z" />
<glyph unicode="z" horiz-adv-x="888" d="M36 0l651 925h-559l30 89h695l-648 -924h645l-28 -90h-786z" />
<glyph unicode="{" horiz-adv-x="570" d="M126 591v74q50 34 75.5 61.5t41 76t15.5 122.5v299q0 83 17 147t43 100t62 58.5t67.5 30t65.5 7.5v-61q-78 0 -122.5 -74.5t-44.5 -207.5v-295q0 -113 -27.5 -180t-87.5 -121q56 -46 85.5 -112t29.5 -185v-297q0 -134 44.5 -209t122.5 -75v-62q-28 0 -54.5 5.5 t-56.5 18.5t-54.5 39t-45.5 62.5t-32.5 93t-11.5 127.5v297q0 74 -15.5 122.5t-41 76t-75.5 61.5z" />
<glyph unicode="|" d="M168 -150v1791h90v-1791h-90z" />
<glyph unicode="}" horiz-adv-x="574" d="M60 -252q79 0 125 74.5t46 207.5v299q0 120 29.5 186t85.5 111q-62 53 -91 119.5t-29 179.5v299q0 134 -44 208t-122 74v59q34 0 66 -7.5t68.5 -30t63.5 -59t44.5 -100.5t17.5 -148v-298q0 -74 15 -122t40.5 -76t74.5 -62v-73q-49 -34 -74.5 -62t-40.5 -76t-15 -122v-299 q0 -84 -17.5 -147.5t-44.5 -100t-63.5 -59t-68.5 -30t-66 -7.5v62z" />
<glyph unicode="~" horiz-adv-x="1058" d="M124 387q0 116 53 168t135 52q57 0 122 -21t114 -46.5t107.5 -46.5t103.5 -21q119 0 119 126h60q0 -113 -49.5 -166.5t-129.5 -53.5q-51 0 -115 21t-114.5 46.5t-111.5 46.5t-106 21q-23 0 -43 -5t-41.5 -17t-34 -39t-12.5 -65h-57z" />
<glyph unicode="&#xa1;" horiz-adv-x="570" d="M203 947q0 33 25 58t58 25q34 0 58.5 -25t24.5 -58q0 -34 -25 -60t-58 -26t-58 26t-25 60zM226 -477l32 1222h58l30 -1222h-120z" />
<glyph unicode="&#xa2;" horiz-adv-x="1105" d="M124 508q0 202 120.5 351.5t299.5 167.5v227h90v-224q109 -12 202.5 -77.5t148.5 -166.5l-79 -45q-44 81 -114.5 133t-155.5 64v-859q84 10 155 62t115 134l79 -44q-56 -101 -149 -166.5t-202 -75.5v-228h-90v228q-117 11 -214 83.5t-151.5 187.5t-54.5 248zM213 510 q0 -167 96 -289t235 -140v859q-139 -18 -235 -140t-96 -290z" />
<glyph unicode="&#xa3;" horiz-adv-x="1033" d="M72 83q84 48 141 107.5t87.5 128t43 137t12.5 151.5q0 58 -4 89h-269l31 90h228q-3 28 -21.5 183.5t-18.5 230.5q0 71 28 130.5t74.5 98.5t104.5 60.5t119 21.5q120 0 211 -79t112 -230l-58 -11q-16 113 -91.5 173t-173.5 60q-96 0 -168.5 -60.5t-72.5 -161.5 q0 -52 7 -117.5t19 -155t17 -139.5h322l-28 -89h-286q2 -30 2 -90q0 -159 -46.5 -289t-160.5 -232h732l-32 -90h-837z" />
<glyph unicode="&#xa4;" horiz-adv-x="1301" d="M143 316l177 175q-96 117 -96 270q0 155 96 275l-156 155l62 63l157 -154q122 94 268 94q153 0 274 -102l167 162l63 -63l-159 -161q89 -113 89 -267t-94 -270l171 -173l-62 -62l-171 169q-122 -96 -273 -96q-155 0 -273 96l-178 -175zM314 763q0 -141 99.5 -240.5 t240.5 -99.5t240.5 99.5t99.5 240.5t-99.5 241t-240.5 100t-240.5 -100t-99.5 -241z" />
<glyph unicode="&#xa5;" horiz-adv-x="1228" d="M36 1493h105l474 -752l475 752h104l-476 -752h303v-96h-361v-150h352v-94h-352v-401h-89v401h-363v94h363v150h-358v96h297z" />
<glyph unicode="&#xa6;" d="M168 297h90v-805h-90v805zM168 716v807h90v-807h-90z" />
<glyph unicode="&#xa7;" horiz-adv-x="897" d="M124 173h89q14 -113 78.5 -165.5t154.5 -52.5q95 0 166 61t71 161q0 57 -31 100t-80 70.5t-109 51.5t-119.5 51.5t-108.5 62t-80 91t-31 130.5q0 151 115 240q-115 79 -115 224q0 136 96.5 222t229.5 86q121 0 212.5 -76t114.5 -228h-94q-15 108 -78 161.5t-150 53.5 q-98 0 -169 -60t-71 -159q0 -51 24 -90.5t63.5 -64.5t90 -49.5t103.5 -43.5t103.5 -47t90 -60t63.5 -83.5t24 -116.5q0 -147 -117 -240q117 -81 117 -224q0 -137 -98.5 -225t-230.5 -88q-120 0 -212 77.5t-112 229.5zM213 737q0 -49 20 -86.5t62.5 -66t79 -46t101.5 -43 t97 -40.5q114 63 114 188q0 39 -17 72.5t-41 55.5t-65 45t-74.5 36.5t-85.5 34.5t-82 35q-109 -63 -109 -185z" />
<glyph unicode="&#xa8;" horiz-adv-x="767" d="M124 1292q0 34 24 59.5t57 25.5q34 0 59 -25.5t25 -59.5t-25 -58.5t-59 -24.5q-33 0 -57 24.5t-24 58.5zM481 1292q0 34 24.5 59.5t58.5 25.5t58.5 -25.5t24.5 -59.5t-24.5 -58.5t-58.5 -24.5t-58.5 24.5t-24.5 58.5z" />
<glyph unicode="&#xa9;" horiz-adv-x="1758" d="M124 745q0 155 60 296t161 243t241 162t294 60t294.5 -60t242 -162t161.5 -243t60 -296t-60 -295.5t-161.5 -242.5t-242 -162t-294.5 -60t-294 60t-241 162t-161 242.5t-60 295.5zM213 745q0 -136 52.5 -260t141.5 -214t213 -143.5t260 -53.5q137 0 261 53.5t213 143.5 t142 214t53 260q0 183 -89 337.5t-243.5 244.5t-336.5 90t-335.5 -90t-242.5 -244.5t-89 -337.5zM493 743q0 178 111.5 305t273.5 127q104 0 190.5 -56t138.5 -150l-79 -44q-41 75 -106.5 117.5t-143.5 42.5q-122 0 -209.5 -99t-87.5 -243t88 -243t209 -99q78 0 143.5 43 t106.5 118l79 -45q-52 -95 -138.5 -150t-190.5 -55q-162 0 -273.5 126.5t-111.5 304.5z" />
<glyph unicode="&#xaa;" horiz-adv-x="872" d="M124 861q0 63 25 109.5t68.5 73t95.5 38.5t114 12q119 0 218 -37q-7 107 -74 170t-165 63q-58 0 -108.5 -33.5t-84.5 -92.5l-63 36q42 74 111.5 118.5t150.5 44.5q134 0 225 -90.5t91 -240.5v-210q0 -89 24 -184l-81 -18q-18 74 -24 177q-41 -76 -108.5 -126.5 t-153.5 -50.5q-114 0 -187.5 66.5t-73.5 174.5zM199 861q0 -77 53 -120t133 -43q53 0 102 25.5t81.5 63t52.5 78t24 73.5v62q-94 32 -209 32q-104 0 -170.5 -39.5t-66.5 -131.5z" />
<glyph unicode="&#xab;" horiz-adv-x="874" d="M124 508l254 359h113l-258 -359l258 -358h-113zM450 508l257 359h111l-256 -359l256 -358h-111z" />
<glyph unicode="&#xac;" horiz-adv-x="1393" d="M124 822v90h1149v-553h-89v463h-1060z" />
<glyph unicode="&#xad;" horiz-adv-x="1036" d="M124 463v90h792v-90h-792z" />
<glyph unicode="&#xae;" horiz-adv-x="1758" d="M124 745q0 155 60 296t161 243t241 162t294 60t294.5 -60t242 -162t161.5 -243t60 -296t-60 -295.5t-161.5 -242.5t-242 -162t-294.5 -60t-294 60t-241 162t-161 242.5t-60 295.5zM213 745q0 -136 52.5 -260t141.5 -214t213 -143.5t260 -53.5q137 0 261 53.5t213 143.5 t142 214t53 260q0 183 -89 337.5t-243.5 244.5t-336.5 90t-335.5 -90t-242.5 -244.5t-89 -337.5zM636 314v865h302q97 0 166 -72.5t69 -173.5q0 -79 -46 -142.5t-117 -85.5l214 -391h-105l-205 378h-188v-378h-90zM726 781h214q59 0 101 44t42 108q0 66 -42 111.5t-103 45.5 h-212v-309z" />
<glyph unicode="&#xaf;" horiz-adv-x="856" d="M124 1209v89h613v-89h-613z" />
<glyph unicode="&#xb0;" horiz-adv-x="749" d="M124 1466q0 105 73.5 179t178.5 74t178.5 -74t73.5 -179q0 -106 -73.5 -180.5t-178.5 -74.5t-178.5 74.5t-73.5 180.5zM215 1466q0 -67 47 -114t114 -47t114.5 47t47.5 114t-47.5 114t-114.5 47t-114 -47t-47 -114z" />
<glyph unicode="&#xb1;" horiz-adv-x="1036" d="M124 0v90h792v-90h-792zM124 701v89h350v354h90v-354h352v-89h-352v-352h-90v352h-350z" />
<glyph unicode="&#xb2;" horiz-adv-x="883" d="M124 922v45q0 69 30 129t78 104t106 84t116.5 76t106.5 72.5t78 82t30 95.5q0 98 -61 166.5t-145 68.5t-144.5 -68t-60.5 -167h-90q0 132 86.5 228t211.5 96t211 -94.5t86 -227.5q0 -61 -27 -114t-70.5 -93.5t-97 -77t-109.5 -71.5t-104 -70t-84 -79.5t-47 -92.5h517v-89 z" />
<glyph unicode="&#xb3;" horiz-adv-x="870" d="M124 1224h89q0 -93 66 -160.5t159 -67.5q94 0 160.5 67.5t66.5 160.5q0 94 -66 160t-161 66v90q69 0 115.5 39.5t46.5 103.5q0 66 -47.5 113t-114.5 47t-113.5 -47t-46.5 -113h-90q0 103 72 175.5t176 72.5q103 0 175 -72.5t72 -175.5q0 -116 -94 -188q72 -41 116.5 -113 t44.5 -158q0 -130 -92 -221t-222 -91t-221 91t-91 221z" />
<glyph unicode="&#xb4;" horiz-adv-x="630" d="M203 1194l227 357h168l-286 -357h-109z" />
<glyph unicode="&#xb5;" horiz-adv-x="1066" d="M168 -307v1321h90v-621q0 -131 79 -221.5t193 -90.5q116 0 199 91t83 221v621h90v-621q0 -166 -107 -284t-261 -118q-83 0 -155 36.5t-121 100.5v-433q0 -91 37 -163l-77 -42q-50 94 -50 203z" />
<glyph unicode="&#xb6;" horiz-adv-x="1260" d="M124 969q0 101 40 193.5t115 167t196 119t270 44.5h349v-1741h-88v1651h-149v-1651h-90v696h-22q-120 0 -222.5 29t-174.5 79t-123.5 116.5t-76 141.5t-24.5 155z" />
<glyph unicode="&#xb7;" horiz-adv-x="498" d="M168 745q0 34 24.5 60t57.5 26t58 -26t25 -60q0 -33 -24.5 -58t-58.5 -25q-33 0 -57.5 25t-24.5 58z" />
<glyph unicode="&#xb8;" horiz-adv-x="624" d="M143 -352l47 74q51 -34 107 -34q45 0 70.5 20t25.5 48q0 29 -30.5 46.5t-76.5 24.5l-64 9l94 164h85l-55 -96q137 -23 137 -148q0 -70 -53 -113.5t-133 -43.5q-77 0 -154 49z" />
<glyph unicode="&#xb9;" horiz-adv-x="782" d="M248 1753l256 174v-1002h-85v833l-122 -81z" />
<glyph unicode="&#xba;" horiz-adv-x="923" d="M124 959q0 141 99 240t240 99t240.5 -99t99.5 -240t-99.5 -241t-240.5 -100t-240 100t-99 241zM213 959q0 -106 73 -180t177 -74q103 0 177 74.5t74 179.5t-74 178.5t-177 73.5q-104 0 -177 -73.5t-73 -178.5z" />
<glyph unicode="&#xbb;" horiz-adv-x="874" d="M124 150l254 358l-254 359h109l258 -359l-258 -358h-109zM450 150l257 358l-257 359h112l256 -359l-256 -358h-112z" />
<glyph unicode="&#xbc;" horiz-adv-x="1848" d="M137 1332l256 174v-1002h-88v833l-117 -81zM365 0l1059 1493h109l-1059 -1493h-109zM904 161l654 862v-771h143l-29 -91h-112v-161h-89v161h-567zM1085 252h386v509z" />
<glyph unicode="&#xbd;" horiz-adv-x="1848" d="M137 1332l256 174v-1002h-88v833l-117 -81zM271 0l1061 1493h110l-1059 -1493h-112zM1072 0v43q0 69 30 129t78.5 104t107 83.5t116.5 75.5t106.5 72t78.5 81t30 95q0 100 -61.5 168.5t-145.5 68.5t-144.5 -68.5t-60.5 -168.5h-90q0 133 86.5 230t210.5 97 q125 0 212 -95.5t87 -227.5q0 -61 -27 -114.5t-71 -93.5t-97.5 -77t-109.5 -71.5t-104.5 -69.5t-84 -79t-46.5 -92h517v-90h-618z" />
<glyph unicode="&#xbe;" horiz-adv-x="1848" d="M105 799h90q0 -95 65.5 -160.5t160.5 -65.5q94 0 160 66t66 160q0 95 -66 161.5t-160 66.5v90q68 0 114 39.5t46 103.5t-47 110.5t-113 46.5q-67 0 -114 -46.5t-47 -110.5h-89q0 103 72 174.5t176 71.5q102 0 174 -71.5t72 -174.5q0 -118 -94 -188q72 -41 116.5 -114 t44.5 -159q0 -130 -92 -222t-221 -92q-131 0 -222.5 92t-91.5 222zM483 0l1059 1493h112l-1061 -1493h-110zM965 164l654 863v-775h143l-32 -88h-109v-164h-90v164h-566zM1147 252h384v509z" />
<glyph unicode="&#xbf;" horiz-adv-x="1036" d="M124 -116q0 52 21 102t54 91.5t73.5 83t81 85t73.5 89t54 103t21 119.5v150h89v-150q0 -71 -21 -136t-54 -115t-73.5 -96t-81 -86.5t-73.5 -78t-54 -79t-21 -82.5q0 -126 82 -206.5t205 -80.5q69 0 131 25.5t104 67t66.5 92.5t24.5 102h90q0 -98 -55 -184.5 t-151.5 -139.5t-209.5 -53q-162 0 -269 107t-107 270zM466 947q0 33 24.5 58t58.5 25q33 0 59 -25t26 -58q0 -34 -26 -60t-59 -26t-58 26t-25 60z" />
<glyph unicode="&#xc0;" horiz-adv-x="1322" d="M36 0l626 1511l628 -1511h-96l-191 463h-681l-190 -463h-96zM365 553h602l-302 725zM365 1878h169l225 -266h-94z" />
<glyph unicode="&#xc1;" horiz-adv-x="1322" d="M36 0l626 1511l628 -1511h-96l-191 463h-681l-190 -463h-96zM365 553h602l-302 725zM575 1612l224 266h170l-300 -266h-94z" />
<glyph unicode="&#xc2;" horiz-adv-x="1322" d="M36 0l626 1511l628 -1511h-96l-191 463h-681l-190 -463h-96zM365 553h602l-302 725zM391 1612l243 266h64l242 -266h-122l-153 163l-152 -163h-122z" />
<glyph unicode="&#xc3;" horiz-adv-x="1322" d="M36 0l626 1511l628 -1511h-96l-191 463h-681l-190 -463h-96zM365 553h602l-302 725zM403 1612q1 34 5.5 60t17 56.5t39 47.5t65.5 17q46 0 97 -27t93.5 -54t67.5 -27q6 0 14.5 4t20 13t19.5 29t8 48h62q0 -183 -126 -183q-41 0 -90 27t-94 54t-74 27q-25 0 -45.5 -20 t-23.5 -72h-56z" />
<glyph unicode="&#xc4;" horiz-adv-x="1322" d="M36 0l626 1511l628 -1511h-96l-191 463h-681l-190 -463h-96zM365 553h602l-302 725zM403 1694q0 34 24.5 59.5t57.5 25.5q34 0 60 -25.5t26 -59.5q0 -33 -26 -57.5t-60 -24.5t-58 24t-24 58zM761 1694q0 34 24.5 59.5t58.5 25.5t59.5 -25.5t25.5 -59.5q0 -33 -25.5 -57.5 t-59.5 -24.5t-58.5 24t-24.5 58z" />
<glyph unicode="&#xc5;" horiz-adv-x="1322" d="M36 0l626 1511l628 -1511h-96l-191 463h-681l-190 -463h-96zM365 553h602l-302 725zM446 1811q0 90 62 152t152 62t152.5 -62t62.5 -152q0 -89 -63 -152t-152 -63q-90 0 -152 62.5t-62 152.5zM534 1811q0 -51 37 -88.5t89 -37.5q51 0 88.5 37.5t37.5 88.5q0 52 -37.5 89 t-88.5 37q-52 0 -89 -37t-37 -89z" />
<glyph unicode="&#xc6;" horiz-adv-x="1542" d="M36 0l618 1493h830v-90h-678l89 -491h529v-90h-510l133 -732h459v-90h-532l-88 463h-564l-190 -463h-96zM361 553h510l-155 850h-2z" />
<glyph unicode="&#xc7;" horiz-adv-x="1613" d="M124 750q0 155 60 296t161 243t241 162t294 60q184 0 344 -83.5t265 -227.5l-72 -53q-93 125 -233.5 197.5t-303.5 72.5q-182 0 -335.5 -90t-242.5 -244.5t-89 -337.5q0 -136 52.5 -260t141.5 -214t213 -143.5t260 -53.5q163 0 303.5 73t233.5 199l76 -51 q-101 -135 -250 -216.5t-321 -89.5l-47 -81q137 -24 137 -150q0 -68 -53 -111t-133 -43q-82 0 -155 47l47 74q52 -32 108 -32q44 0 70 18.5t26 46.5q0 55 -108 71l-64 10l89 152q-148 7 -280.5 70t-228 163.5t-151 238t-55.5 287.5z" />
<glyph unicode="&#xc8;" horiz-adv-x="1094" d="M168 0v1493h868v-90h-778v-491h716v-90h-716v-732h774v-90h-864zM302 1878h170l224 -266h-94z" />
<glyph unicode="&#xc9;" horiz-adv-x="1094" d="M168 0v1493h868v-90h-778v-491h716v-90h-716v-732h774v-90h-864zM427 1612l224 266h171l-303 -266h-92z" />
<glyph unicode="&#xca;" horiz-adv-x="1094" d="M168 0v1493h868v-90h-778v-491h716v-90h-716v-732h774v-90h-864zM286 1612l242 266h70l241 -266h-123l-154 163l-152 -163h-124z" />
<glyph unicode="&#xcb;" horiz-adv-x="1094" d="M168 0v1493h868v-90h-778v-491h716v-90h-716v-732h774v-90h-864zM297 1694q0 34 26 59.5t60 25.5q33 0 58 -25.5t25 -59.5q0 -33 -25 -57.5t-58 -24.5q-34 0 -60 24.5t-26 57.5zM656 1694q0 34 25.5 59.5t59.5 25.5t58.5 -25.5t24.5 -59.5t-24.5 -58t-58.5 -24 t-59.5 24.5t-25.5 57.5z" />
<glyph unicode="&#xcc;" d="M-90 1878h171l224 -266h-92zM168 0v1493h90v-1493h-90z" />
<glyph unicode="&#xcd;" d="M119 1612l223 266h171l-300 -266h-94zM168 0v1493h90v-1493h-90z" />
<glyph unicode="&#xce;" d="M-64 1612l241 266h67l241 -266h-120l-157 163l-152 -163h-120zM168 0v1493h90v-1493h-90z" />
<glyph unicode="&#xcf;" d="M-54 1694q0 34 25 59.5t59 25.5q33 0 58.5 -25.5t25.5 -59.5q0 -33 -25.5 -57.5t-58.5 -24.5q-34 0 -59 24t-25 58zM168 0v1493h90v-1493h-90zM305 1694q0 34 24.5 59.5t57.5 25.5q34 0 59.5 -25.5t25.5 -59.5q0 -33 -25.5 -57.5t-59.5 -24.5t-58 24t-24 58z" />
<glyph unicode="&#xd0;" horiz-adv-x="1346" d="M9 701v89h159v703h300q154 0 294 -58t242 -157.5t162 -238.5t60 -294q0 -206 -102 -377.5t-276 -269.5t-380 -98h-300v701h-159zM258 90h210q183 0 336.5 86t243 237t89.5 332q0 183 -89.5 334.5t-243 237.5t-336.5 86h-210v-613h440v-89h-440v-611z" />
<glyph unicode="&#xd1;" horiz-adv-x="1678" d="M168 0v1511l1256 -1309v1291h89v-1510l-1255 1307v-1290h-90zM579 1612h2q2 35 6.5 60.5t17 56t39 47.5t65.5 17q47 0 97.5 -27t92.5 -54t68 -27q6 0 15 4t20.5 13t19.5 29t8 48h60q0 -183 -125 -183q-41 0 -90 27t-94 54t-74 27q-24 0 -45 -20t-24 -72h-59z" />
<glyph unicode="&#xd2;" horiz-adv-x="1758" d="M124 745q0 155 60 296t161 243t241 162t294 60t294.5 -60t242 -162t161.5 -243t60 -296t-60 -295.5t-161.5 -242.5t-242 -162t-294.5 -60t-294 60t-241 162t-161 242.5t-60 295.5zM213 745q0 -136 52.5 -260t141.5 -214t213 -143.5t260 -53.5q137 0 261 53.5t213 143.5 t142 214t53 260q0 183 -89 337.5t-243.5 244.5t-336.5 90t-335.5 -90t-242.5 -244.5t-89 -337.5zM495 1878h170l224 -266h-92z" />
<glyph unicode="&#xd3;" horiz-adv-x="1758" d="M124 745q0 155 60 296t161 243t241 162t294 60t294.5 -60t242 -162t161.5 -243t60 -296t-60 -295.5t-161.5 -242.5t-242 -162t-294.5 -60t-294 60t-241 162t-161 242.5t-60 295.5zM213 745q0 -136 52.5 -260t141.5 -214t213 -143.5t260 -53.5q137 0 261 53.5t213 143.5 t142 214t53 260q0 183 -89 337.5t-243.5 244.5t-336.5 90t-335.5 -90t-242.5 -244.5t-89 -337.5zM848 1612l224 266h171l-303 -266h-92z" />
<glyph unicode="&#xd4;" horiz-adv-x="1758" d="M124 745q0 155 60 296t161 243t241 162t294 60t294.5 -60t242 -162t161.5 -243t60 -296t-60 -295.5t-161.5 -242.5t-242 -162t-294.5 -60t-294 60t-241 162t-161 242.5t-60 295.5zM213 745q0 -136 52.5 -260t141.5 -214t213 -143.5t260 -53.5q137 0 261 53.5t213 143.5 t142 214t53 260q0 183 -89 337.5t-243.5 244.5t-336.5 90t-335.5 -90t-242.5 -244.5t-89 -337.5zM607 1612l241 266h68l241 -266h-121l-156 163l-152 -163h-121z" />
<glyph unicode="&#xd5;" horiz-adv-x="1758" d="M124 745q0 155 60 296t161 243t241 162t294 60t294.5 -60t242 -162t161.5 -243t60 -296t-60 -295.5t-161.5 -242.5t-242 -162t-294.5 -60t-294 60t-241 162t-161 242.5t-60 295.5zM213 745q0 -136 52.5 -260t141.5 -214t213 -143.5t260 -53.5q137 0 261 53.5t213 143.5 t142 214t53 260q0 183 -89 337.5t-243.5 244.5t-336.5 90t-335.5 -90t-242.5 -244.5t-89 -337.5zM624 1612h2q5 181 128 181q46 0 96.5 -27t93 -54t68.5 -27q6 0 14.5 4t20 13t19.5 29t8 48h61q0 -183 -125 -183q-41 0 -90 27t-94 54t-74 27q-25 0 -45.5 -20t-23.5 -72h-59z " />
<glyph unicode="&#xd6;" horiz-adv-x="1758" d="M124 745q0 155 60 296t161 243t241 162t294 60t294.5 -60t242 -162t161.5 -243t60 -296t-60 -295.5t-161.5 -242.5t-242 -162t-294.5 -60t-294 60t-241 162t-161 242.5t-60 295.5zM213 745q0 -136 52.5 -260t141.5 -214t213 -143.5t260 -53.5q137 0 261 53.5t213 143.5 t142 214t53 260q0 183 -89 337.5t-243.5 244.5t-336.5 90t-335.5 -90t-242.5 -244.5t-89 -337.5zM618 1694q0 34 24.5 59.5t58.5 25.5q33 0 59 -25.5t26 -59.5q0 -33 -26 -57.5t-59 -24.5q-34 0 -58.5 24t-24.5 58zM976 1694q0 34 24.5 59.5t58.5 25.5t59.5 -25.5 t25.5 -59.5q0 -33 -25.5 -57.5t-59.5 -24.5t-58.5 24t-24.5 58z" />
<glyph unicode="&#xd7;" horiz-adv-x="1066" d="M72 1144h127l339 -338l331 338h125l-394 -401l396 -394h-127l-331 332l-325 -332h-126l387 394z" />
<glyph unicode="&#xd8;" horiz-adv-x="1756" d="M124 745q0 155 60 296t161 243t241 162t294 60q212 0 389 -107l134 206l75 -47l-137 -208q137 -108 216 -266t79 -339q0 -155 -60 -295.5t-161.5 -242.5t-242 -162t-294.5 -60q-199 0 -370 98l-130 -197l-73 50l127 196q-143 104 -225.5 265.5t-82.5 347.5zM213 745 q0 -161 72.5 -303t197.5 -237l735 1120q-149 92 -338 92q-182 0 -335.5 -90t-242.5 -244.5t-89 -337.5zM557 158q154 -84 323 -84q137 0 261 53.5t213 143.5t142 214t53 260q0 159 -69 297.5t-188 230.5z" />
<glyph unicode="&#xd9;" horiz-adv-x="1393" d="M168 566v927h90v-927q0 -135 61 -249t162.5 -178.5t219.5 -64.5t218.5 64.5t160 178t59.5 249.5v927h90v-927q0 -157 -70.5 -290.5t-193 -212t-267.5 -78.5t-267 78.5t-192.5 212t-70.5 290.5zM352 1878h169l224 -266h-91z" />
<glyph unicode="&#xda;" horiz-adv-x="1393" d="M168 566v927h90v-927q0 -135 61 -249t162.5 -178.5t219.5 -64.5t218.5 64.5t160 178t59.5 249.5v927h90v-927q0 -157 -70.5 -290.5t-193 -212t-267.5 -78.5t-267 78.5t-192.5 212t-70.5 290.5zM651 1612l224 266h170l-302 -266h-92z" />
<glyph unicode="&#xdb;" horiz-adv-x="1393" d="M168 566v927h90v-927q0 -135 61 -249t162.5 -178.5t219.5 -64.5t218.5 64.5t160 178t59.5 249.5v927h90v-927q0 -157 -70.5 -290.5t-193 -212t-267.5 -78.5t-267 78.5t-192.5 212t-70.5 290.5zM421 1612l241 266h70l242 -266h-126l-152 163l-152 -163h-123z" />
<glyph unicode="&#xdc;" horiz-adv-x="1393" d="M168 566v927h90v-927q0 -135 61 -249t162.5 -178.5t219.5 -64.5t218.5 64.5t160 178t59.5 249.5v927h90v-927q0 -157 -70.5 -290.5t-193 -212t-267.5 -78.5t-267 78.5t-192.5 212t-70.5 290.5zM436 1694q0 34 24.5 59.5t58.5 25.5t58.5 -25.5t24.5 -59.5t-24.5 -58 t-58.5 -24t-58.5 24t-24.5 58zM795 1694q0 34 24.5 59.5t58.5 25.5q33 0 58 -25.5t25 -59.5q0 -33 -25 -57.5t-58 -24.5q-34 0 -58.5 24t-24.5 58z" />
<glyph unicode="&#xdd;" horiz-adv-x="1228" d="M36 1493h105l474 -752l475 752h104l-534 -848v-645h-89v645zM571 1612l224 266h170l-303 -266h-91z" />
<glyph unicode="&#xde;" horiz-adv-x="1134" d="M168 0v1493h90v-340q105 18 192 18q259 0 411.5 -117t152.5 -311t-152.5 -310.5t-411.5 -116.5q-93 0 -192 17v-333h-90zM258 427q88 -17 192 -17q215 0 343.5 88t128.5 247t-128.5 248.5t-343.5 89.5q-88 0 -192 -17v-639z" />
<glyph unicode="&#xdf;" horiz-adv-x="1132" d="M168 0v1164q0 124 32.5 222t87.5 158t122.5 91t142.5 31q146 0 254.5 -106t108.5 -280q0 -53 -18 -101t-45.5 -82t-59 -67.5t-59 -59t-45.5 -54t-18 -55.5q0 -35 25.5 -71.5t63 -66.5t82 -69t82 -78t63 -94.5t25.5 -116.5q0 -89 -31 -163t-84 -121t-120.5 -72.5 t-142.5 -25.5q-168 0 -294 109l61 40q91 -78 210 -78q126 0 217.5 86t91.5 229q0 51 -25.5 98t-63 80t-82 71t-82 71t-63 80t-25.5 98q0 38 18 75t45.5 65.5t59 61t59 62t45.5 69.5t18 83q0 135 -83 215t-195 80q-56 0 -106 -23.5t-91.5 -71t-66 -129.5t-24.5 -188v-1166 h-90z" />
<glyph unicode="&#xe0;" horiz-adv-x="1060" d="M101 262q0 51 15.5 94t40 73.5t65 55t78 40t93.5 27t97 17t102 8.5t96.5 3.5t90.5 0.5h27q-5 165 -97.5 263t-213.5 98q-71 0 -138.5 -37t-117.5 -108l-71 47q61 94 147 141t180 47q76 0 146.5 -30.5t126.5 -86t90.5 -142.5t36.5 -192v-447q0 -87 25 -134h-96 q-18 57 -18 134v79q-72 -100 -172.5 -165t-212.5 -65q-81 0 -144.5 25.5t-100.5 67.5t-56 89.5t-19 96.5zM190 262q0 -72 60 -131t171 -59q115 0 223 77t162 176v192q-47 -1 -78.5 -2t-86 -4.5t-92.5 -8t-88.5 -14.5t-85.5 -22.5t-72.5 -32t-60.5 -43t-37.5 -56.5t-14.5 -72 zM199 1457h170l224 -266h-91z" />
<glyph unicode="&#xe1;" horiz-adv-x="1060" d="M101 262q0 51 15.5 94t40 73.5t65 55t78 40t93.5 27t97 17t102 8.5t96.5 3.5t90.5 0.5h27q-5 165 -97.5 263t-213.5 98q-71 0 -138.5 -37t-117.5 -108l-71 47q61 94 147 141t180 47q76 0 146.5 -30.5t126.5 -86t90.5 -142.5t36.5 -192v-447q0 -87 25 -134h-96 q-18 57 -18 134v79q-72 -100 -172.5 -165t-212.5 -65q-81 0 -144.5 25.5t-100.5 67.5t-56 89.5t-19 96.5zM190 262q0 -72 60 -131t171 -59q115 0 223 77t162 176v192q-47 -1 -78.5 -2t-86 -4.5t-92.5 -8t-88.5 -14.5t-85.5 -22.5t-72.5 -32t-60.5 -43t-37.5 -56.5t-14.5 -72 zM406 1191l222 266h171l-299 -266h-94z" />
<glyph unicode="&#xe2;" horiz-adv-x="1060" d="M101 262q0 51 15.5 94t40 73.5t65 55t78 40t93.5 27t97 17t102 8.5t96.5 3.5t90.5 0.5h27q-5 165 -97.5 263t-213.5 98q-71 0 -138.5 -37t-117.5 -108l-71 47q61 94 147 141t180 47q76 0 146.5 -30.5t126.5 -86t90.5 -142.5t36.5 -192v-447q0 -87 25 -134h-96 q-18 57 -18 134v79q-72 -100 -172.5 -165t-212.5 -65q-81 0 -144.5 25.5t-100.5 67.5t-56 89.5t-19 96.5zM190 262q0 -72 60 -131t171 -59q115 0 223 77t162 176v192q-47 -1 -78.5 -2t-86 -4.5t-92.5 -8t-88.5 -14.5t-85.5 -22.5t-72.5 -32t-60.5 -43t-37.5 -56.5t-14.5 -72 zM250 1191l243 266h64l242 -266h-120l-153 163l-152 -163h-124z" />
<glyph unicode="&#xe3;" horiz-adv-x="1060" d="M101 262q0 51 15.5 94t40 73.5t65 55t78 40t93.5 27t97 17t102 8.5t96.5 3.5t90.5 0.5h27q-5 165 -97.5 263t-213.5 98q-71 0 -138.5 -37t-117.5 -108l-71 47q61 94 147 141t180 47q76 0 146.5 -30.5t126.5 -86t90.5 -142.5t36.5 -192v-447q0 -87 25 -134h-96 q-18 57 -18 134v79q-72 -100 -172.5 -165t-212.5 -65q-81 0 -144.5 25.5t-100.5 67.5t-56 89.5t-19 96.5zM190 262q0 -72 60 -131t171 -59q115 0 223 77t162 176v192q-47 -1 -78.5 -2t-86 -4.5t-92.5 -8t-88.5 -14.5t-85.5 -22.5t-72.5 -32t-60.5 -43t-37.5 -56.5t-14.5 -72 zM267 1194q0 51 8 84q26 94 118 94q66 0 156 -58q71 -45 105 -45q9 0 18 3t20 11t17.5 26t6.5 43h57q0 -54 -10 -83q-22 -94 -109 -94q-64 0 -152 63q-71 50 -109 50q-24 0 -44.5 -21.5t-23.5 -72.5h-58z" />
<glyph unicode="&#xe4;" horiz-adv-x="1060" d="M101 262q0 51 15.5 94t40 73.5t65 55t78 40t93.5 27t97 17t102 8.5t96.5 3.5t90.5 0.5h27q-5 165 -97.5 263t-213.5 98q-71 0 -138.5 -37t-117.5 -108l-71 47q61 94 147 141t180 47q76 0 146.5 -30.5t126.5 -86t90.5 -142.5t36.5 -192v-447q0 -87 25 -134h-96 q-18 57 -18 134v79q-72 -100 -172.5 -165t-212.5 -65q-81 0 -144.5 25.5t-100.5 67.5t-56 89.5t-19 96.5zM190 262q0 -72 60 -131t171 -59q115 0 223 77t162 176v192q-47 -1 -78.5 -2t-86 -4.5t-92.5 -8t-88.5 -14.5t-85.5 -22.5t-72.5 -32t-60.5 -43t-37.5 -56.5t-14.5 -72 zM267 1278q0 34 24.5 58.5t57.5 24.5t58 -24.5t25 -58.5t-25 -59t-58 -25t-57.5 25t-24.5 59zM624 1278q0 34 24.5 58.5t58.5 24.5t58.5 -24.5t24.5 -58.5t-24.5 -59t-58.5 -25t-58.5 25t-24.5 59z" />
<glyph unicode="&#xe5;" horiz-adv-x="1060" d="M101 262q0 51 15.5 94t40 73.5t65 55t78 40t93.5 27t97 17t102 8.5t96.5 3.5t90.5 0.5h27q-5 165 -97.5 263t-213.5 98q-71 0 -138.5 -37t-117.5 -108l-71 47q61 94 147 141t180 47q76 0 146.5 -30.5t126.5 -86t90.5 -142.5t36.5 -192v-447q0 -87 25 -134h-96 q-18 57 -18 134v79q-72 -100 -172.5 -165t-212.5 -65q-81 0 -144.5 25.5t-100.5 67.5t-56 89.5t-19 96.5zM190 262q0 -72 60 -131t171 -59q115 0 223 77t162 176v192q-47 -1 -78.5 -2t-86 -4.5t-92.5 -8t-88.5 -14.5t-85.5 -22.5t-72.5 -32t-60.5 -43t-37.5 -56.5t-14.5 -72 zM312 1395q0 89 62 152t152 63q89 0 152 -63t63 -152q0 -91 -62.5 -153.5t-152.5 -62.5t-152 62.5t-62 153.5zM401 1395q0 -52 36.5 -89t88.5 -37q51 0 88 37t37 89q0 50 -37.5 87.5t-87.5 37.5q-51 0 -88 -37.5t-37 -87.5z" />
<glyph unicode="&#xe6;" horiz-adv-x="1859" d="M101 262q0 68 27.5 121.5t67 87.5t106 58.5t121 36.5t136 18.5t128.5 7.5t119 1q-5 164 -96.5 256.5t-214.5 92.5q-71 0 -138.5 -37t-117.5 -108l-71 47q61 94 147 141t180 47q119 0 220 -71.5t146 -201.5q62 123 171 197t239 74q184 0 317.5 -139.5t148.5 -337.5l2 -45 h-846q0 -179 111 -304t265 -125q97 0 180 52.5t136 146.5l79 -45q-62 -112 -167.5 -180t-227.5 -68q-131 0 -239.5 74t-170.5 199q-78 -121 -192 -198t-246 -77q-81 0 -144.5 25.5t-100.5 67.5t-56 89.5t-19 96.5zM190 262q0 -72 60 -131t171 -59q113 0 227 78.5t178 191.5 q-20 85 -20 166q-238 -4 -350 -26q-266 -51 -266 -220zM904 593h737q-27 151 -131.5 249t-238.5 98q-133 0 -236.5 -98t-130.5 -249z" />
<glyph unicode="&#xe7;" horiz-adv-x="1004" d="M72 510q0 141 61 261t167.5 190.5t233.5 70.5q123 0 228 -67.5t167 -178.5l-79 -45q-53 92 -136 145.5t-180 53.5q-154 0 -265 -126t-111 -306t111.5 -307t264.5 -127q97 0 180.5 54t135.5 147l83 -40q-57 -102 -149 -167t-205 -77l-49 -83q139 -24 139 -150 q0 -68 -53 -111t-133 -43q-86 0 -154 47l47 74q52 -32 107 -32q44 0 70 18.5t26 46.5q0 55 -107 71l-66 10l89 152q-181 18 -302 167.5t-121 351.5z" />
<glyph unicode="&#xe8;" horiz-adv-x="1177" d="M124 508q0 139 61.5 259t169 191.5t234.5 71.5q120 0 223.5 -64.5t167.5 -173.5t75 -239l2 -49h-849q0 -179 111.5 -302t265.5 -123q98 0 181.5 53t135.5 146l76 -45q-62 -113 -166.5 -180.5t-226.5 -67.5q-127 0 -233.5 71t-167 191.5t-60.5 260.5zM222 593h737 q-28 151 -132 249t-238 98q-133 0 -236.5 -98t-130.5 -249zM224 1459h169l225 -265h-92z" />
<glyph unicode="&#xe9;" horiz-adv-x="1177" d="M124 508q0 139 61.5 259t169 191.5t234.5 71.5q120 0 223.5 -64.5t167.5 -173.5t75 -239l2 -49h-849q0 -179 111.5 -302t265.5 -123q98 0 181.5 53t135.5 146l76 -45q-62 -113 -166.5 -180.5t-226.5 -67.5q-127 0 -233.5 71t-167 191.5t-60.5 260.5zM222 593h737 q-28 151 -132 249t-238 98q-133 0 -236.5 -98t-130.5 -249zM528 1194l224 265h170l-302 -265h-92z" />
<glyph unicode="&#xea;" horiz-adv-x="1177" d="M124 508q0 139 61.5 259t169 191.5t234.5 71.5q120 0 223.5 -64.5t167.5 -173.5t75 -239l2 -49h-849q0 -179 111.5 -302t265.5 -123q98 0 181.5 53t135.5 146l76 -45q-62 -113 -166.5 -180.5t-226.5 -67.5q-127 0 -233.5 71t-167 191.5t-60.5 260.5zM222 593h737 q-28 151 -132 249t-238 98q-133 0 -236.5 -98t-130.5 -249zM312 1194l241 265h65l241 -265h-122l-152 165l-153 -165h-120z" />
<glyph unicode="&#xeb;" horiz-adv-x="1177" d="M124 508q0 139 61.5 259t169 191.5t234.5 71.5q120 0 223.5 -64.5t167.5 -173.5t75 -239l2 -49h-849q0 -179 111.5 -302t265.5 -123q98 0 181.5 53t135.5 146l76 -45q-62 -113 -166.5 -180.5t-226.5 -67.5q-127 0 -233.5 71t-167 191.5t-60.5 260.5zM222 593h737 q-28 151 -132 249t-238 98q-133 0 -236.5 -98t-130.5 -249zM312 1278q0 34 24 58.5t57 24.5q34 0 59 -24.5t25 -58.5t-25 -59t-59 -25q-33 0 -57 25t-24 59zM669 1278q0 34 24.5 58.5t58.5 24.5t58.5 -24.5t24.5 -58.5t-24.5 -59t-58.5 -25t-58.5 25t-24.5 59z" />
<glyph unicode="&#xec;" d="M-98 1459h170l223 -265h-92zM168 0v1014h90v-1014h-90z" />
<glyph unicode="&#xed;" d="M101 1194l228 265h166l-300 -265h-94zM168 0v1014h90v-1014h-90z" />
<glyph unicode="&#xee;" d="M-62 1194l241 265h65l241 -265h-120l-152 165l-153 -165h-122zM168 0v1014h90v-1014h-90z" />
<glyph unicode="&#xef;" d="M-54 1278q0 34 25 58.5t59 24.5q33 0 58.5 -25t25.5 -58q0 -34 -25.5 -59t-58.5 -25q-34 0 -59 25t-25 59zM168 0v1014h90v-1014h-90zM305 1278q0 34 24 58.5t58 24.5t59.5 -24.5t25.5 -58.5t-25.5 -59t-59.5 -25t-58 25t-24 59z" />
<glyph unicode="&#xf0;" horiz-adv-x="1282" d="M124 508q0 142 69.5 262.5t189 190t260.5 69.5q178 0 316 -108q-119 219 -323 383l-316 -188l-45 77l282 169q-145 103 -309 157l27 85q187 -59 363 -191l317 188l45 -77l-286 -171l2 -2q115 -97 201.5 -207.5t131.5 -200t72 -183t34 -149t7 -104.5q0 -107 -41 -204 t-111 -166.5t-166 -111t-201 -41.5q-215 0 -367 153t-152 370zM205 504q0 -116 58.5 -216t158 -158t216.5 -58q180 0 307 127t127 305q0 95 -36.5 177.5t-97 138t-138.5 87t-162 31.5q-178 0 -305.5 -127.5t-127.5 -306.5z" />
<glyph unicode="&#xf1;" horiz-adv-x="1071" d="M143 1014h96q19 -66 19 -134v-152q55 125 152.5 213.5t189.5 88.5q102 0 172.5 -57t102 -146t31.5 -201v-626h-88v626q0 55 -10.5 106t-33.5 100t-68.5 78.5t-107.5 29.5q-59 0 -122.5 -46t-110 -112.5t-77 -141.5t-30.5 -132v-508h-90v880q0 86 -25 134zM280 1194 q0 51 9 84q30 94 121 94q70 0 154 -58q68 -45 105 -45q21 0 42 22.5t21 69.5l56 -9q0 -53 -9 -83q-25 -94 -110 -94q-64 0 -152 63q-74 50 -107 50q-25 0 -47 -21.5t-23 -72.5h-60z" />
<glyph unicode="&#xf2;" horiz-adv-x="1282" d="M124 508q0 142 69.5 262.5t189 190t260.5 69.5q105 0 201 -41t166 -111t111 -167t41 -203q0 -107 -41 -204t-111 -166.5t-166 -111t-201 -41.5q-215 0 -367 153t-152 370zM213 508q0 -179 126.5 -306.5t305.5 -127.5t305.5 127.5t126.5 306.5q0 178 -126.5 305 t-305.5 127t-305.5 -127t-126.5 -305zM356 1459h170l224 -265h-94z" />
<glyph unicode="&#xf3;" horiz-adv-x="1282" d="M124 508q0 142 69.5 262.5t189 190t260.5 69.5q105 0 201 -41t166 -111t111 -167t41 -203q0 -107 -41 -204t-111 -166.5t-166 -111t-201 -41.5q-215 0 -367 153t-152 370zM213 508q0 -179 126.5 -306.5t305.5 -127.5t305.5 127.5t126.5 306.5q0 178 -126.5 305 t-305.5 127t-305.5 -127t-126.5 -305zM528 1194l224 265h170l-302 -265h-92z" />
<glyph unicode="&#xf4;" horiz-adv-x="1282" d="M124 508q0 142 69.5 262.5t189 190t260.5 69.5q105 0 201 -41t166 -111t111 -167t41 -203q0 -107 -41 -204t-111 -166.5t-166 -111t-201 -41.5q-215 0 -367 153t-152 370zM213 508q0 -179 126.5 -306.5t305.5 -127.5t305.5 127.5t126.5 306.5q0 178 -126.5 305 t-305.5 127t-305.5 -127t-126.5 -305zM365 1194l242 265h64l243 -265h-124l-152 165l-153 -165h-120z" />
<glyph unicode="&#xf5;" horiz-adv-x="1282" d="M124 508q0 142 69.5 262.5t189 190t260.5 69.5q105 0 201 -41t166 -111t111 -167t41 -203q0 -107 -41 -204t-111 -166.5t-166 -111t-201 -41.5q-215 0 -367 153t-152 370zM213 508q0 -179 126.5 -306.5t305.5 -127.5t305.5 127.5t126.5 306.5q0 178 -126.5 305 t-305.5 127t-305.5 -127t-126.5 -305zM378 1194q0 51 9 84q30 94 121 94q70 0 154 -58q68 -45 105 -45q22 0 43 22.5t21 69.5l55 -9q0 -52 -8 -83q-25 -94 -111 -94q-64 0 -152 63q-74 50 -107 50q-25 0 -47 -21.5t-23 -72.5h-60z" />
<glyph unicode="&#xf6;" horiz-adv-x="1282" d="M124 508q0 142 69.5 262.5t189 190t260.5 69.5q105 0 201 -41t166 -111t111 -167t41 -203q0 -107 -41 -204t-111 -166.5t-166 -111t-201 -41.5q-215 0 -367 153t-152 370zM213 508q0 -179 126.5 -306.5t305.5 -127.5t305.5 127.5t126.5 306.5q0 178 -126.5 305 t-305.5 127t-305.5 -127t-126.5 -305zM376 1278q0 34 24.5 58.5t58.5 24.5t59.5 -24.5t25.5 -58.5t-25.5 -59t-59.5 -25t-58.5 25t-24.5 59zM734 1278q0 34 25 58.5t59 24.5q33 0 58.5 -25t25.5 -58t-25.5 -58.5t-58.5 -25.5q-34 0 -59 25t-25 59z" />
<glyph unicode="&#xf7;" horiz-adv-x="1078" d="M143 701v89h795v-89h-795zM457 468q0 34 24.5 59.5t58.5 25.5t59 -25.5t25 -59.5t-25 -58.5t-59 -24.5t-58.5 24.5t-24.5 58.5zM457 1023q0 34 24.5 59.5t58.5 25.5t59 -25.5t25 -59.5t-25 -58.5t-59 -24.5t-58.5 24.5t-24.5 58.5z" />
<glyph unicode="&#xf8;" horiz-adv-x="1284" d="M124 508q0 142 69.5 262.5t189 190t260.5 69.5q109 0 210 -45l76 141l83 -45l-74 -143q104 -72 165 -185t61 -245q0 -107 -41 -204t-111 -166.5t-166 -111t-201 -41.5q-100 0 -195 35l-67 -129l-81 40l67 131q-112 70 -178.5 188.5t-66.5 257.5zM208 504 q0 -114 55 -210.5t149 -156.5l400 765q-83 36 -169 36q-180 0 -307.5 -127.5t-127.5 -306.5zM493 98q72 -26 152 -26q179 0 305.5 127t126.5 305q0 109 -48.5 201t-133.5 152z" />
<glyph unicode="&#xf9;" horiz-adv-x="1066" d="M168 387v627h90v-627q0 -131 79 -222t193 -91q115 0 198.5 91.5t83.5 221.5v627h90v-627q0 -165 -107 -283.5t-261 -118.5q-153 0 -259.5 118.5t-106.5 283.5zM235 1459h171l222 -265h-90z" />
<glyph unicode="&#xfa;" horiz-adv-x="1066" d="M168 387v627h90v-627q0 -131 79 -222t193 -91q115 0 198.5 91.5t83.5 221.5v627h90v-627q0 -165 -107 -283.5t-261 -118.5q-153 0 -259.5 118.5t-106.5 283.5zM448 1194l223 265h171l-302 -265h-92z" />
<glyph unicode="&#xfb;" horiz-adv-x="1066" d="M168 387v627h90v-627q0 -131 79 -222t193 -91q115 0 198.5 91.5t83.5 221.5v627h90v-627q0 -165 -107 -283.5t-261 -118.5q-153 0 -259.5 118.5t-106.5 283.5zM260 1194l242 265h64l242 -265h-121l-153 165l-151 -165h-123z" />
<glyph unicode="&#xfc;" horiz-adv-x="1066" d="M168 387v627h90v-627q0 -131 79 -222t193 -91q115 0 198.5 91.5t83.5 221.5v627h90v-627q0 -165 -107 -283.5t-261 -118.5q-153 0 -259.5 118.5t-106.5 283.5zM278 1278q0 34 24.5 58.5t58.5 24.5t59.5 -24.5t25.5 -58.5t-25.5 -59t-59.5 -25t-58.5 25t-24.5 59z M636 1278q0 34 24 58.5t58 24.5t59.5 -24.5t25.5 -58.5t-25.5 -59t-59.5 -25t-58 25t-24 59z" />
<glyph unicode="&#xfd;" horiz-adv-x="950" d="M36 1014h96l349 -895l341 895h94l-583 -1535h-98l197 519zM387 1194l224 265h170l-300 -265h-94z" />
<glyph unicode="&#xfe;" horiz-adv-x="1232" d="M168 -508v2001h90v-679q65 99 165 157.5t215 58.5q130 0 240 -71.5t172.5 -191.5t62.5 -259q0 -140 -62.5 -260.5t-172.5 -191.5t-240 -71q-115 0 -215 58t-165 156v-707h-90zM258 477q10 -169 119.5 -283.5t258.5 -114.5q157 0 271 126t114 305q0 180 -114 306t-271 126 q-149 0 -258.5 -114.5t-119.5 -283.5v-67z" />
<glyph unicode="&#xff;" horiz-adv-x="946" d="M36 1014h92l349 -895l341 895h96l-583 -1535h-96l197 519zM218 1292q0 34 25.5 59.5t58.5 25.5t58 -25.5t25 -59.5t-25 -58.5t-58 -24.5t-58.5 25t-25.5 58zM575 1292q0 34 25.5 59.5t59.5 25.5t58.5 -25.5t24.5 -59.5t-24.5 -58.5t-58.5 -24.5t-59.5 24.5t-25.5 58.5z " />
<glyph unicode="&#x152;" horiz-adv-x="1920" d="M124 745q0 155 60 296t161 243t241 162t294 60q82 0 150 -13h830v-90h-779v-491h721v-90h-719v-732h779v-90h-832q-78 -15 -150 -15q-154 0 -294 60t-241 162t-161 242.5t-60 295.5zM213 745q0 -136 52.5 -260t141.5 -214t213 -143.5t260 -53.5q35 0 114 9v1325 q-52 9 -114 9q-182 0 -335.5 -90t-242.5 -244.5t-89 -337.5z" />
<glyph unicode="&#x153;" horiz-adv-x="2125" d="M124 508q0 142 69.5 262.5t189 190t260.5 69.5q153 0 281 -84t193 -220q54 136 168 220t253 84q182 0 315 -139.5t150 -337.5l3 -49h-842q0 -179 111 -302t265 -123q98 0 181.5 52.5t134.5 146.5l78 -45q-62 -112 -166.5 -180t-227.5 -68q-141 0 -255 83.5t-168 220.5 q-65 -137 -193 -220.5t-281 -83.5q-215 0 -367 153t-152 370zM213 508q0 -179 126.5 -306.5t305.5 -127.5t305.5 127.5t126.5 306.5q0 178 -126.5 305t-305.5 127t-305.5 -127t-126.5 -305zM1173 593h736q-27 152 -131 250.5t-238 98.5q-133 0 -236.5 -98.5t-130.5 -250.5z " />
<glyph unicode="&#x178;" horiz-adv-x="1228" d="M36 1493h105l474 -752l475 752h104l-534 -848v-645h-89v645zM356 1694q0 34 24.5 59.5t57.5 25.5q34 0 58.5 -25.5t24.5 -59.5t-24.5 -58t-58.5 -24t-58 24t-24 58zM714 1694q0 34 24.5 59.5t58.5 25.5t58.5 -25.5t24.5 -59.5t-24.5 -58t-58.5 -24t-58.5 24t-24.5 58z " />
<glyph unicode="&#x2c6;" horiz-adv-x="690" d="M72 1461l242 267h64l242 -267h-120l-154 166l-151 -166h-123z" />
<glyph unicode="&#x2dc;" horiz-adv-x="648" d="M72 1323q0 49 9 83q27 96 118 96q62 0 157 -60q70 -45 103 -45q22 0 42 22t20 70h58q0 -44 -8 -92q-25 -92 -112 -92q-67 0 -152 62q-69 47 -108 47q-23 0 -44.5 -20.5t-22.5 -70.5h-60z" />
<glyph unicode="&#x2000;" horiz-adv-x="1012" />
<glyph unicode="&#x2001;" horiz-adv-x="2025" />
<glyph unicode="&#x2002;" horiz-adv-x="1012" />
<glyph unicode="&#x2003;" horiz-adv-x="2025" />
<glyph unicode="&#x2004;" horiz-adv-x="675" />
<glyph unicode="&#x2005;" horiz-adv-x="506" />
<glyph unicode="&#x2006;" horiz-adv-x="337" />
<glyph unicode="&#x2007;" horiz-adv-x="337" />
<glyph unicode="&#x2008;" horiz-adv-x="253" />
<glyph unicode="&#x2009;" horiz-adv-x="405" />
<glyph unicode="&#x200a;" horiz-adv-x="112" />
<glyph unicode="&#x2010;" horiz-adv-x="856" d="M124 553v90h613v-90h-613z" />
<glyph unicode="&#x2011;" horiz-adv-x="856" d="M124 553v90h613v-90h-613z" />
<glyph unicode="&#x2012;" horiz-adv-x="856" d="M124 553v90h613v-90h-613z" />
<glyph unicode="&#x2013;" horiz-adv-x="530" d="M0 446v125h530v-125h-530z" />
<glyph unicode="&#x2014;" horiz-adv-x="1125" d="M0 446v125h1128v-125h-1128z" />
<glyph unicode="&#x2018;" horiz-adv-x="523" d="M126 1224q0 84 42 159.5t112 129.5h76q-55 -43 -92.5 -109.5t-35.5 -118.5q3 0 10.5 1.5t11.5 1.5q43 0 72.5 -30.5t29.5 -73.5q0 -41 -30 -71t-72 -30q-49 0 -86.5 37t-37.5 104z" />
<glyph unicode="&#x2019;" horiz-adv-x="523" d="M126 1077q53 43 89.5 110.5t36.5 119.5q-6 -2 -21 -2q-42 0 -72.5 29.5t-30.5 71.5q0 41 30.5 70.5t72.5 29.5q47 0 86 -36t39 -103q0 -82 -43 -158.5t-112 -131.5h-75z" />
<glyph unicode="&#x201a;" horiz-adv-x="523" d="M186 -260q54 44 91 110t37 118q-3 0 -12 -1t-13 -1q-41 0 -71 30.5t-30 72.5q0 41 30 71.5t71 30.5q48 0 86.5 -37t38.5 -104q0 -83 -41.5 -159t-110.5 -131h-76z" />
<glyph unicode="&#x201c;" horiz-adv-x="737" d="M126 1224q0 84 42 159.5t112 129.5h76q-55 -43 -92.5 -109.5t-35.5 -118.5q3 0 10.5 1.5t11.5 1.5q43 0 72.5 -30.5t29.5 -73.5q0 -41 -30 -71t-72 -30q-49 0 -86.5 37t-37.5 104zM393 1224q0 83 42.5 159t113.5 130h75q-55 -43 -92 -109.5t-35 -118.5q3 0 10 1.5t12 1.5 q42 0 71.5 -30.5t29.5 -73.5q0 -41 -29.5 -71t-71.5 -30q-49 0 -87.5 37t-38.5 104z" />
<glyph unicode="&#x201d;" horiz-adv-x="737" d="M126 1077q53 43 89.5 110.5t36.5 119.5q-6 -2 -21 -2q-42 0 -72.5 29.5t-30.5 71.5q0 41 30.5 70.5t72.5 29.5q47 0 86 -36t39 -103q0 -82 -43 -158.5t-112 -131.5h-75zM393 1077q54 43 91 110.5t37 119.5q-6 -2 -21 -2q-42 0 -73 29.5t-31 71.5q0 41 31 70.5t73 29.5 q47 0 85.5 -36t38.5 -103q0 -81 -42.5 -158t-111.5 -132h-77z" />
<glyph unicode="&#x201e;" horiz-adv-x="737" d="M126 -242q53 43 89.5 109.5t36.5 119.5q-3 0 -10.5 -1t-10.5 -1q-42 0 -72.5 30.5t-30.5 71.5t30.5 71t72.5 30q47 0 86 -37t39 -104q0 -82 -43 -158.5t-112 -130.5h-75zM393 -242q54 43 91 109.5t37 119.5q-3 0 -10.5 -1t-10.5 -1q-42 0 -73 30.5t-31 71.5t31 71t73 30 q47 0 85.5 -37t38.5 -104q0 -82 -42.5 -158.5t-111.5 -130.5h-77z" />
<glyph unicode="&#x2022;" horiz-adv-x="989" d="M143 598q0 148 103.5 252.5t248.5 104.5q146 0 249.5 -104.5t103.5 -252.5t-103.5 -253.5t-249.5 -105.5q-145 0 -248.5 105.5t-103.5 253.5z" />
<glyph unicode="&#x2026;" horiz-adv-x="1765" d="M203 69q0 34 25 58.5t58 24.5q34 0 58.5 -24.5t24.5 -58.5q0 -33 -25 -58.5t-58 -25.5t-58 25.5t-25 58.5zM803 69q0 34 25 58.5t58 24.5q34 0 58.5 -24.5t24.5 -58.5q0 -33 -25 -58.5t-58 -25.5t-58 25.5t-25 58.5zM1397 69q0 34 24.5 58.5t58.5 24.5t59.5 -24.5 t25.5 -58.5q0 -33 -25.5 -58.5t-59.5 -25.5q-33 0 -58 25.5t-25 58.5z" />
<glyph unicode="&#x202f;" horiz-adv-x="405" />
<glyph unicode="&#x2039;" horiz-adv-x="472" d="M36 508l257 359h110l-258 -359l258 -358h-110z" />
<glyph unicode="&#x203a;" horiz-adv-x="472" d="M72 150l257 358l-257 359h109l257 -359l-257 -358h-109z" />
<glyph unicode="&#x205f;" horiz-adv-x="506" />
<glyph unicode="&#x20ac;" horiz-adv-x="1160" d="M38 521l31 90h85q-9 101 -9 134q0 38 9 135h-116l31 89h104q59 236 220 386.5t368 150.5q176 0 331 -118l-56 -74q-133 107 -277 107q-168 0 -306 -126t-193 -326h770l-30 -89h-758q-11 -68 -11 -135q0 -63 11 -134h788l-30 -90h-740q55 -198 193 -322.5t306 -124.5 q155 0 277 99l56 -68q-154 -120 -331 -120q-206 0 -367.5 151t-220.5 385h-135z" />
<glyph unicode="&#x2122;" horiz-adv-x="1713" d="M143 1414v79h502v-79h-213v-669h-76v669h-213zM696 750l152 761l287 -605l291 600l148 -761h-79l-98 517l-267 -534l-252 537l-101 -515h-81z" />
<glyph unicode="&#xe000;" horiz-adv-x="1014" d="M0 1015h1015v-1015h-1015v1015z" />
<glyph unicode="&#xfb01;" horiz-adv-x="923" d="M54 925v89h89v76q0 169 106 286t261 117q76 0 136.5 -22t96 -57.5t54.5 -74t21 -77.5v-8q0 -30 -21 -51t-52 -21q-29 0 -50.5 21.5t-21.5 50.5q0 28 21.5 49.5t50.5 21.5q16 0 22 -2q-31 54 -89.5 82t-128.5 28q-135 0 -225.5 -99t-90.5 -244v-76h555v-1014h-87v925h-468 v-925h-90v925h-89z" />
<glyph unicode="&#xfb02;" horiz-adv-x="927" d="M54 925v89h89v76q0 165 107 284t260 119h278v-1493h-87v1433h-188q-112 0 -196 -105t-84 -238v-76h280l-30 -89h-250v-925h-90v925h-89z" />
<glyph unicode="&#xfb03;" horiz-adv-x="1481" d="M54 925v89h89v16q0 169 106 286t261 117q166 0 257 -110q51 78 129.5 124t171.5 46q76 0 136.5 -22t96 -57.5t54.5 -74t22 -77.5v-8q0 -29 -21.5 -50.5t-50.5 -21.5q-30 0 -51 21.5t-21 50.5t21 50t51 21q13 0 20 -2q-33 54 -90 82t-127 28q-134 0 -226 -99t-92 -244v-76 h555v-1014h-85v925h-470v-925h-89v925h-468v-925h-90v925h-89zM233 1014h468v76q0 114 44 200q-70 82 -196 82q-135 0 -225.5 -98t-90.5 -244v-16z" />
<glyph unicode="&#xfb04;" horiz-adv-x="1487" d="M54 925v89h89v16q0 169 106 286t261 117q166 0 257 -110q51 78 129.5 124t171.5 46h277v-1493h-85v1433h-152q-134 0 -226 -99t-92 -244v-76h282l-31 -89h-251v-925h-89v925h-468v-925h-90v925h-89zM233 1014h468v76q0 114 44 200q-70 82 -196 82q-135 0 -225.5 -98 t-90.5 -244v-16z" />
</font>
</defs>
</svg>
